<?xml version="1.0" standalone="no"?>
<!DOCTYPE svg PUBLIC "-//W3C//DTD SVG 20010904//EN"
 "http://www.w3.org/TR/2001/REC-SVG-20010904/DTD/svg10.dtd">
<svg version="1.0" xmlns="http://www.w3.org/2000/svg"
 width="1090.000000pt" height="856.000000pt" viewBox="0 0 1090.000000 856.000000"
 preserveAspectRatio="xMidYMid meet">

<g transform="translate(0.000000,856.000000) scale(0.100000,-0.100000)"
fill="#000000" stroke="none">
<path d="M5574 7365 c-289 -63 -524 -301 -524 -531 l0 -52 -82 -39 c-151 -73
-255 -168 -309 -283 -26 -54 -49 -135 -49 -174 0 -26 2 -28 33 -23 17 3 53 9
79 13 46 6 48 8 58 48 40 157 163 280 339 337 90 29 102 44 94 123 -20 217
184 422 455 457 193 24 401 -57 494 -193 53 -79 70 -86 157 -65 137 33 300 18
411 -38 l51 -26 70 42 70 42 -37 25 c-57 38 -152 78 -231 96 -73 16 -249 20
-308 7 -27 -6 -37 0 -108 66 -136 127 -290 184 -491 182 -61 0 -139 -7 -172
-14z"/>
<path d="M7258 6949 c-91 -10 -242 -55 -305 -91 -160 -90 -282 -252 -308 -405
-6 -41 -8 -42 -63 -58 -31 -9 -88 -33 -127 -52 -258 -131 -390 -372 -329 -605
8 -33 14 -61 12 -62 -2 -1 -29 -21 -61 -45 -181 -137 -240 -375 -148 -600 51
-127 118 -200 242 -269 92 -50 168 -76 285 -96 50 -9 112 -23 138 -32 60 -21
159 -111 191 -174 40 -78 66 -195 72 -322 3 -65 7 -118 9 -118 12 0 149 51
157 59 11 11 -6 185 -29 279 -21 88 -73 195 -124 259 -82 104 -194 157 -395
188 -188 29 -313 115 -383 262 -34 74 -37 84 -36 178 0 83 4 109 23 152 25 57
114 149 171 178 48 24 80 55 80 77 0 10 -9 36 -19 56 -70 137 -28 320 97 432
67 60 192 124 277 140 88 17 94 19 107 43 7 12 15 54 18 92 16 177 172 337
381 391 84 22 227 22 304 -1 135 -38 259 -133 305 -232 33 -73 37 -74 174 -67
93 5 137 3 189 -10 126 -30 239 -101 297 -188 60 -91 69 -150 44 -319 -6 -42
-4 -48 17 -62 13 -8 51 -20 84 -27 33 -7 80 -23 105 -35 245 -124 282 -484 70
-678 -72 -65 -150 -101 -280 -127 -125 -24 -199 -58 -238 -108 -28 -36 -102
-184 -102 -204 0 -6 22 12 50 38 84 84 122 114 142 114 10 0 18 -4 18 -9 0
-12 25 -8 70 13 19 9 78 25 130 36 118 25 223 74 311 145 79 64 107 98 147
180 90 183 73 400 -42 554 -76 102 -146 155 -259 196 l-48 18 6 51 c9 69 -16
181 -56 257 -41 76 -145 174 -236 222 -103 54 -199 78 -333 82 l-114 4 -31 43
c-78 107 -198 193 -325 232 -85 26 -227 37 -332 25z"/>
<path d="M5650 6923 c-26 -10 -60 -46 -60 -64 0 -10 29 -84 65 -165 36 -81 64
-148 63 -149 -2 -2 -63 19 -137 47 -120 44 -137 48 -167 38 -56 -19 -75 -86
-31 -114 22 -15 210 -84 344 -126 l71 -23 49 -115 49 -115 52 -18 52 -18 27
42 c23 37 25 44 13 72 -29 73 -31 69 148 283 28 34 52 70 52 80 0 50 -66 85
-118 62 -15 -6 -58 -52 -97 -101 -38 -50 -73 -92 -76 -95 -4 -2 -29 51 -58
119 -151 360 -168 386 -241 360z"/>
<path d="M7413 6286 l-27 -24 12 -78 c11 -76 47 -349 56 -426 2 -23 0 -38 -7
-38 -20 0 -162 89 -234 147 -63 51 -92 84 -168 191 -23 32 -87 31 -120 -3 -14
-13 -25 -31 -25 -40 0 -62 159 -236 300 -328 86 -56 111 -68 211 -108 l56 -22
7 -90 c8 -115 8 -472 0 -480 -8 -8 -92 35 -176 90 -87 57 -200 167 -226 219
-36 71 -127 84 -161 23 -20 -37 -9 -66 58 -151 101 -128 241 -226 457 -318
l42 -18 -5 -49 c-10 -107 -45 -351 -63 -440 -11 -53 -20 -99 -20 -104 0 -12
34 2 110 47 219 126 192 110 279 168 112 75 201 162 201 197 0 34 -32 59 -75
59 -24 0 -53 -18 -121 -71 -108 -87 -174 -133 -174 -122 0 4 7 58 15 118 8 61
20 211 27 333 l12 224 102 79 c148 114 260 250 323 392 40 90 44 120 20 151
-16 21 -29 26 -63 26 -53 0 -76 -23 -99 -100 -23 -78 -107 -200 -201 -294 -77
-77 -81 -79 -87 -56 -4 14 -7 59 -8 100 -2 148 -40 493 -78 703 -14 79 -18 89
-44 102 -40 21 -74 18 -106 -9z"/>
<path d="M4690 6130 c-257 -41 -482 -205 -561 -407 -24 -62 -32 -212 -16 -283
8 -35 7 -37 -45 -72 -233 -161 -311 -425 -195 -655 29 -56 131 -173 152 -173
9 0 1 -23 -21 -67 -47 -91 -62 -182 -45 -265 28 -141 115 -272 238 -360 147
-105 238 -138 403 -145 143 -6 219 9 363 71 57 25 120 46 139 46 19 0 84 -23
153 -54 l120 -54 5 36 5 37 90 3 90 3 -185 82 c-185 82 -185 82 -270 82 -80 0
-92 -3 -210 -54 -116 -50 -132 -54 -221 -59 -113 -5 -175 6 -275 53 -152 70
-272 226 -282 365 -6 83 15 151 62 206 70 83 68 101 -14 154 -137 88 -209 238
-182 376 25 124 97 220 212 284 117 65 121 74 85 170 -11 27 -18 73 -18 115 0
267 288 466 619 427 117 -13 198 -48 278 -121 67 -61 94 -64 181 -25 87 40
151 54 252 54 118 0 174 -12 266 -59 l74 -39 6 81 c5 59 3 83 -6 89 -6 4 -48
20 -92 35 -72 24 -95 27 -230 27 -138 1 -157 -1 -241 -27 l-90 -29 -40 27
c-63 43 -174 93 -244 110 -81 19 -237 27 -310 15z"/>
<path d="M5282 5534 c-39 -27 -44 -48 -26 -111 29 -99 -1 -345 -50 -415 -13
-18 -16 -16 -59 34 -52 61 -189 236 -254 323 -48 64 -83 87 -123 78 -30 -6
-70 -47 -70 -71 0 -37 384 -515 554 -689 l60 -63 -46 0 c-73 0 -287 40 -358
66 -35 14 -85 38 -111 54 -73 47 -148 36 -163 -25 -10 -41 8 -61 96 -103 180
-87 326 -121 558 -129 l164 -6 66 -62 c177 -167 309 -283 418 -365 33 -25 57
-49 54 -54 -3 -5 -76 -6 -172 -3 -159 6 -169 6 -194 -14 -31 -25 -35 -68 -7
-93 38 -34 237 -45 433 -25 71 8 116 8 135 2 19 -7 43 -6 76 2 26 7 50 12 53
13 20 3 70 15 77 19 6 4 -68 60 -284 214 -87 63 -238 193 -239 207 0 7 13 38
29 70 34 67 68 174 80 252 l9 54 -72 71 c-40 38 -79 81 -87 94 -13 21 -14 15
-11 -75 4 -108 -17 -223 -58 -319 l-21 -50 -214 217 -213 218 39 91 c65 149
83 228 83 359 0 128 -13 190 -49 226 -28 28 -70 31 -103 8z"/>
<path d="M8252 4784 c-683 -622 -1626 -984 -2659 -1021 l-183 -6 0 -51 c0 -86
28 -295 54 -401 165 -674 661 -1170 1306 -1306 153 -32 419 -32 575 0 429 88
778 322 1041 697 73 104 185 332 228 464 40 123 72 277 86 410 42 405 -58 840
-273 1186 -31 50 -62 96 -69 102 -10 8 -35 -10 -106 -74z m-209 -890 c113 -38
197 -159 205 -293 14 -250 -217 -402 -420 -275 l-37 23 20 -72 c11 -40 35
-125 54 -189 l33 -118 -51 -15 c-53 -16 -77 -19 -77 -10 0 3 -52 191 -115 417
-64 226 -114 415 -112 421 3 10 79 37 104 37 6 0 17 -22 24 -50 7 -27 16 -50
19 -50 3 0 11 15 18 33 32 88 133 157 232 157 31 0 77 -7 103 -16z m-1571
-436 c9 -7 22 -32 28 -56 6 -24 13 -49 16 -56 4 -11 -13 -13 -84 -8 -80 4 -96
2 -137 -18 -86 -42 -130 -144 -100 -230 30 -86 100 -133 191 -132 54 1 94 21
155 79 l48 45 15 -54 c25 -89 25 -88 -29 -130 -68 -52 -130 -71 -213 -66 -116
6 -219 74 -269 176 -38 77 -39 191 -4 270 33 74 115 146 194 171 71 23 166 27
189 9z m766 -320 c35 -35 -15 -99 -53 -68 -30 25 -12 80 25 80 9 0 21 -5 28
-12z m357 -402 c33 -188 29 -213 -41 -283 -128 -128 -397 -152 -514 -47 -21
20 -43 50 -49 67 -11 33 -61 300 -61 323 0 8 21 15 55 19 73 10 69 12 77 -37
39 -234 51 -281 79 -313 37 -42 96 -58 171 -45 107 17 165 63 175 139 3 20 -7
103 -22 185 -14 81 -25 149 -23 151 11 10 114 19 119 10 4 -5 19 -81 34 -169z"/>
<path d="M7819 3757 c-128 -68 -139 -243 -21 -334 83 -63 185 -54 259 23 92
95 78 227 -31 302 -62 41 -139 45 -207 9z"/>
<path d="M7155 4398 c-35 -27 -31 -63 19 -171 30 -66 38 -76 53 -69 10 5 44
21 75 36 l56 27 -40 86 c-22 48 -47 93 -56 100 -26 19 -76 15 -107 -9z"/>
<path d="M6362 4144 c-31 -22 -28 -56 14 -155 20 -46 37 -85 39 -87 1 -1 24 3
51 8 27 6 56 12 64 14 50 9 50 12 4 119 -25 56 -50 105 -57 109 -21 13 -92 9
-115 -8z"/>
<path d="M2234 3049 c-132 -12 -231 -54 -326 -138 -62 -55 -86 -96 -97 -167
-10 -59 -24 -127 -42 -197 -8 -28 -19 -42 -47 -56 -20 -10 -48 -31 -62 -46
l-25 -28 54 7 54 7 -7 -73 c-4 -40 -8 -142 -8 -226 -2 -173 1 -180 69 -189 53
-7 73 19 73 97 0 30 7 84 14 120 8 36 12 68 10 71 -2 3 1 23 7 44 6 21 12 55
13 77 5 63 33 92 97 100 209 27 366 31 489 12 31 -5 37 -2 53 24 9 17 17 44
17 61 0 34 -14 45 -71 55 -44 8 -258 -8 -404 -29 -59 -9 -113 -14 -120 -11
-18 6 73 234 112 280 39 48 66 57 195 66 90 6 127 5 181 -8 77 -18 85 -14 106
47 17 52 14 79 -11 93 -26 14 -208 18 -324 7z"/>
<path d="M3260 2584 c-59 -15 -428 -196 -470 -230 -14 -11 -51 -31 -82 -43
-70 -28 -87 -45 -70 -72 7 -10 17 -27 23 -37 9 -15 6 -23 -20 -49 -34 -35 -39
-58 -16 -90 39 -55 183 -28 345 65 111 64 192 102 202 96 4 -3 8 -12 8 -20 0
-33 33 -76 68 -91 54 -23 157 -20 214 5 60 26 285 154 358 202 121 81 158 91
203 52 39 -34 8 -166 -59 -245 -36 -43 -29 -70 23 -81 34 -7 56 -5 105 12 110
36 272 101 303 122 150 99 202 130 222 130 32 0 29 -19 -17 -109 -47 -91 -49
-108 -15 -117 42 -10 68 2 239 116 215 142 285 178 308 154 9 -8 -28 -142 -47
-170 -29 -44 -45 -100 -32 -113 32 -32 93 -7 241 100 97 69 174 109 210 109
30 0 85 -26 160 -76 88 -57 162 -66 250 -29 l37 16 -20 32 c-12 18 -26 31 -33
29 -28 -7 -61 12 -138 83 -89 81 -109 91 -173 81 -45 -8 -220 -86 -231 -105
-7 -10 -46 -16 -46 -7 0 2 11 26 25 53 13 26 27 71 31 99 5 44 3 55 -15 73
-42 42 -114 19 -316 -104 -139 -85 -185 -103 -170 -67 13 32 35 105 35 118 0
8 -11 21 -25 30 -49 32 -156 -13 -397 -168 -43 -28 -82 -56 -88 -63 -17 -20
-187 -105 -210 -105 -29 0 -25 24 16 92 32 53 36 65 32 109 -7 64 -39 99 -136
146 -85 41 -126 41 -219 -1 -44 -21 -53 -29 -53 -51 0 -32 -51 -81 -133 -127
-69 -39 -141 -83 -179 -109 -35 -25 -100 -25 -121 -1 -12 13 -17 37 -17 75 0
49 -3 59 -25 73 -21 14 -32 15 -73 5 -26 -7 -67 -24 -92 -38 -122 -69 -295
-153 -314 -153 -18 0 -15 6 19 35 22 19 69 51 105 71 36 20 74 44 85 53 23 20
220 138 283 170 32 16 42 27 42 45 0 39 -43 46 -140 20z"/>
<path d="M3840 1889 c-1071 -16 -1762 -57 -2255 -134 -240 -37 -516 -86 -540
-95 -15 -6 -26 -21 -30 -42 -4 -18 -34 -123 -66 -232 -33 -109 -59 -205 -59
-211 0 -20 94 17 270 105 52 26 113 53 135 60 22 7 47 18 55 25 24 19 106 56
158 70 26 8 121 35 212 60 91 26 203 56 250 67 47 10 135 32 195 48 68 18 183
37 300 50 105 11 235 27 290 35 163 23 278 34 495 46 113 6 239 15 280 21 197
26 1225 20 1915 -12 116 -5 374 -17 575 -25 714 -30 1596 -89 1668 -110 12 -4
22 -3 22 2 0 11 -26 18 -285 83 -117 29 -266 58 -360 70 -88 12 -227 30 -310
40 -82 11 -256 24 -385 30 -129 5 -251 12 -271 15 -40 5 -506 21 -879 30 -465
10 -887 12 -1380 4z"/>
<path d="M7785 1584 c152 -55 158 -56 217 -36 29 10 53 23 52 28 0 9 -205 32
-294 33 l-45 0 70 -25z"/>
</g>
</svg>
